# 3ds Max Wavefront OBJ Exporter v0.97b - (c)2007 guruware
# 创建的文件:15.04.2022 11:22:10

mtllib box.mtl

#
# object Box002
#

v  -0.5000 0.0000 0.5000
v  -0.5000 0.0000 -0.5000
v  0.5000 0.0000 -0.5000
v  0.5000 0.0000 0.5000
v  -0.5000 1.0000 0.5000
v  0.5000 1.0000 0.5000
v  0.5000 1.0000 -0.5000
v  -0.5000 1.0000 -0.5000
# 8 vertices

vn -0.5774 -0.5774 0.5774
vn -0.5774 -0.5774 -0.5774
vn 0.5774 -0.5774 -0.5774
vn 0.5774 -0.5774 0.5774
vn -0.5774 0.5774 0.5774
vn 0.5774 0.5774 0.5774
vn 0.5774 0.5774 -0.5774
vn -0.5774 0.5774 -0.5774
# 8 vertex normals

vt 1.0000 0.0000 0.0000
vt 1.0000 1.0000 0.0000
vt 0.0000 1.0000 0.0000
vt 0.0000 0.0000 0.0000
# 4 texture coords

o Box002
g Box002
usemtl wire_006135006
f 1/1/1 2/2/2 3/3/3 4/4/4 
f 5/4/5 6/1/6 7/2/7 8/3/8 
f 1/4/1 4/1/4 6/2/6 5/3/5 
f 4/4/4 3/1/3 7/2/7 6/3/6 
f 3/4/3 2/1/2 8/2/8 7/3/7 
f 2/4/2 1/1/1 5/2/5 8/3/8 
# 6 polygons

